<svg width="115" height="34" viewBox="0 0 115 34" fill="none" xmlns="http://www.w3.org/2000/svg">
<circle cx="16.8183" cy="16.8183" r="16.8183" fill="#2DB894"/>
<path d="M26.01 13.509L25.7527 11.0514C25.3801 8.37203 24.1646 7.28076 21.5651 7.28076H19.4713H18.1582H15.4611H14.148H12.0187C9.41035 7.28076 8.20375 8.37203 7.82225 11.078L7.58271 13.5178C7.49399 14.4671 7.75128 15.3898 8.31022 16.1085C8.98449 16.9868 10.0225 17.4836 11.1759 17.4836C12.2938 17.4836 13.3673 16.9247 14.0416 16.0286C14.6449 16.9247 15.674 17.4836 16.8185 17.4836C17.963 17.4836 18.9656 16.9513 19.5777 16.0641C20.2609 16.9424 21.3167 17.4836 22.4168 17.4836C23.5968 17.4836 24.6614 16.9602 25.3268 16.0375C25.8592 15.3277 26.0987 14.4316 26.01 13.509Z" fill="white"/>
<path d="M16.2419 20.9527C15.1151 21.068 14.2634 22.0262 14.2634 23.1618V25.5927C14.2634 25.8323 14.4586 26.0275 14.6982 26.0275H18.9301C19.1697 26.0275 19.3649 25.8323 19.3649 25.5927V23.4723C19.3737 21.6181 18.2825 20.7397 16.2419 20.9527Z" fill="white"/>
<path d="M25.1317 18.9477V21.5916C25.1317 24.0403 23.1444 26.0276 20.6957 26.0276C20.4562 26.0276 20.261 25.8324 20.261 25.5929V23.4725C20.261 22.3369 19.915 21.4496 19.2407 20.8463C18.6463 20.3052 17.8389 20.039 16.8364 20.039C16.6146 20.039 16.3928 20.0479 16.1532 20.0745C14.574 20.2342 13.3763 21.565 13.3763 23.162V25.5929C13.3763 25.8324 13.1811 26.0276 12.9415 26.0276C10.4928 26.0276 8.50549 24.0403 8.50549 21.5916V18.9655C8.50549 18.3444 9.11767 17.9274 9.69435 18.1315C9.9339 18.2113 10.1734 18.2734 10.4219 18.3089C10.5283 18.3267 10.6437 18.3444 10.7501 18.3444C10.8921 18.3622 11.034 18.371 11.176 18.371C12.2051 18.371 13.2166 17.9895 14.015 17.333C14.778 17.9895 15.7717 18.371 16.8186 18.371C17.8744 18.371 18.8503 18.0073 19.6133 17.3508C20.4118 17.9984 21.4055 18.371 22.4169 18.371C22.5766 18.371 22.7363 18.3622 22.8871 18.3444C22.9936 18.3356 23.0912 18.3267 23.1888 18.3089C23.4638 18.2734 23.7122 18.1936 23.9606 18.1137C24.5373 17.9186 25.1317 18.3444 25.1317 18.9477Z" fill="white"/>
<path d="M42.2791 12.0311C41.2911 12.0311 40.6247 12.7894 40.6247 13.9612V21.7274V22.0951C40.6247 23.221 41.314 23.9792 42.325 23.9792C43.313 23.9792 44.0024 23.221 44.0024 22.0951V21.7274V16.6036C44.0024 15.5926 44.7376 14.8573 45.7486 14.8573C46.8745 14.8573 47.5178 15.6156 47.5178 16.9253V21.7274V22.0951C47.5178 23.221 48.1842 23.9792 49.1952 23.9792C50.2062 23.9792 50.8725 23.221 50.8725 22.0951V21.7274V16.6036C50.8725 15.5696 51.6078 14.8573 52.6647 14.8573C53.6987 14.8573 54.388 15.5696 54.388 16.6036V21.7274V22.0951C54.388 23.221 55.0543 23.9792 56.0653 23.9792C57.0763 23.9792 57.7656 23.221 57.7656 22.0951V21.7274V15.8453C57.7656 13.6166 56.0193 11.9392 53.6987 11.9392C52.389 11.9392 51.4929 12.3298 50.1372 13.4327C49.379 12.3758 48.4139 11.9392 46.9204 11.9392C45.7027 11.9392 44.8755 12.2609 43.9334 13.1111C43.336 12.2609 42.9684 12.0311 42.2791 12.0311ZM67.7383 12.0082C68.6574 12.0082 69.3467 11.3189 69.3467 10.3768C69.3467 9.04413 67.6005 8.12505 65.119 8.12505C61.8103 8.12505 59.4666 10.17 59.4666 13.0651C59.4666 14.168 59.8342 15.156 60.4546 15.7764C61.098 16.4198 61.7873 16.7414 63.6025 17.2929C66.2678 18.0741 66.6584 18.3498 66.6584 19.2919C66.6584 20.2569 65.9002 20.9003 64.7513 20.9003C64.1999 20.9003 63.5565 20.7854 62.9821 20.5786L61.7873 20.1191C61.4886 20.0042 61.1899 19.9352 60.8912 19.9352C60.064 19.9352 59.3747 20.6935 59.3747 21.6126C59.3747 23.129 61.5116 24.209 64.5675 24.209C68.1749 24.209 70.4267 22.2329 70.4267 19.0621C70.4267 16.5806 68.9791 15.133 65.6015 14.2369L64.6594 13.9842C63.7174 13.7314 63.2348 13.2719 63.2348 12.6745C63.2348 11.9392 63.9701 11.4108 65.0041 11.4108C65.4866 11.4108 66.038 11.5256 66.5665 11.6865L67.2099 11.9163C67.3477 11.9852 67.5316 12.0082 67.7383 12.0082ZM81.3219 19.1081C82.3788 19.1081 82.7924 18.7175 82.7924 17.7524C82.7924 14.5127 80.3339 11.9392 77.186 11.9392C73.8544 11.9392 71.3958 14.6046 71.3958 18.189C71.3958 21.6355 73.9463 24.0481 77.5307 24.0481C80.1501 24.0481 82.5856 22.7614 82.5856 21.3828C82.5856 20.6475 81.9423 20.0042 81.207 20.0042C80.9543 20.0042 80.7245 20.0501 80.4947 20.165L79.5297 20.6475C78.8863 20.9692 78.3119 21.1071 77.7145 21.1071C76.4048 21.1071 75.5317 20.4637 75.0492 19.1081H81.3219ZM74.9113 16.8104C75.3938 15.3628 76.1291 14.6965 77.2779 14.6965C78.4268 14.6965 79.0931 15.3628 79.4837 16.8104H74.9113ZM87.5555 8.83734C87.5555 7.71146 86.8662 6.9762 85.8782 6.9762C84.8672 6.9762 84.1779 7.73444 84.1779 8.83734V9.20497V21.7274V22.0951C84.1779 23.221 84.8672 23.9792 85.8782 23.9792C86.8662 23.9792 87.5555 23.221 87.5555 22.0951V21.7274V9.20497V8.83734ZM92.9183 8.83734C92.9183 7.71146 92.229 6.9762 91.241 6.9762C90.23 6.9762 89.5407 7.73444 89.5407 8.83734V9.20497V21.7274V22.0951C89.5407 23.221 90.23 23.9792 91.241 23.9792C92.229 23.9792 92.9183 23.221 92.9183 22.0951V21.7274V9.20497V8.83734ZM104.209 19.1081C105.266 19.1081 105.68 18.7175 105.68 17.7524C105.68 14.5127 103.221 11.9392 100.073 11.9392C96.7416 11.9392 94.2831 14.6046 94.2831 18.189C94.2831 21.6355 96.8335 24.0481 100.418 24.0481C103.037 24.0481 105.473 22.7614 105.473 21.3828C105.473 20.6475 104.83 20.0042 104.094 20.0042C103.842 20.0042 103.612 20.0501 103.382 20.165L102.417 20.6475C101.774 20.9692 101.199 21.1071 100.602 21.1071C99.2921 21.1071 98.419 20.4637 97.9364 19.1081H104.209ZM97.7986 16.8104C98.2811 15.3628 99.0164 14.6965 100.165 14.6965C101.314 14.6965 101.98 15.3628 102.371 16.8104H97.7986ZM108.765 12.0311C107.731 12.0311 107.065 12.7664 107.065 13.9382V21.7274V22.0951C107.065 23.221 107.754 23.9792 108.765 23.9792C109.753 23.9792 110.443 23.221 110.443 22.0951V21.7274V17.4767C110.443 16.2819 110.925 15.8224 112.763 15.2479C114.165 14.8114 114.487 14.5127 114.487 13.6855C114.487 12.7205 113.728 11.9392 112.74 11.9392C111.982 11.9392 111.385 12.2839 110.443 13.2259C110.075 12.4218 109.524 12.0311 108.765 12.0311Z" fill="#2DB894"/>
</svg>
