<svg width="40" height="40" viewBox="0 0 40 40" fill="none" xmlns="http://www.w3.org/2000/svg">
<circle cx="20" cy="20" r="20" fill="#2DB894"/>
<path d="M30.9313 16.0646L30.6253 13.1421C30.1822 9.95591 28.7368 8.6582 25.6455 8.6582H23.1556H21.5941H18.3868H16.8253H14.2932C11.1914 8.6582 9.75649 9.95591 9.30282 13.1738L9.01796 16.0752C8.91246 17.2041 9.21842 18.3013 9.8831 19.1559C10.6849 20.2004 11.9193 20.7912 13.2909 20.7912C14.6203 20.7912 15.8969 20.1266 16.6987 19.061C17.4161 20.1266 18.64 20.7912 20.001 20.7912C21.362 20.7912 22.5542 20.1582 23.2822 19.1032C24.0946 20.1477 25.3501 20.7912 26.6583 20.7912C28.0615 20.7912 29.3276 20.1688 30.1189 19.0715C30.7519 18.2275 31.0368 17.1619 30.9313 16.0646Z" fill="white"/>
<path d="M19.3152 24.9166C17.9752 25.0537 16.9624 26.1932 16.9624 27.5436V30.4345C16.9624 30.7193 17.1945 30.9514 17.4794 30.9514H22.5119C22.7968 30.9514 23.0289 30.7193 23.0289 30.4345V27.9129C23.0395 25.7079 21.7418 24.6634 19.3152 24.9166Z" fill="white"/>
<path d="M29.8863 22.532V25.676C29.8863 28.588 27.523 30.9513 24.6111 30.9513C24.3262 30.9513 24.0941 30.7192 24.0941 30.4343V27.9127C24.0941 26.5623 23.6826 25.5072 22.8808 24.7898C22.1739 24.1462 21.2138 23.8297 20.0216 23.8297C19.7579 23.8297 19.4941 23.8403 19.2092 23.8719C17.3313 24.0618 15.9069 25.6444 15.9069 27.5435V30.4343C15.9069 30.7192 15.6748 30.9513 15.39 30.9513C12.478 30.9513 10.1147 28.588 10.1147 25.676V22.5531C10.1147 21.8146 10.8427 21.3187 11.5285 21.5614C11.8134 21.6563 12.0982 21.7302 12.3936 21.7724C12.5203 21.7935 12.6574 21.8146 12.784 21.8146C12.9528 21.8357 13.1216 21.8462 13.2904 21.8462C14.5143 21.8462 15.717 21.3926 16.6666 20.6118C17.5739 21.3926 18.7556 21.8462 20.0005 21.8462C21.256 21.8462 22.4166 21.4137 23.3239 20.6329C24.2735 21.4031 25.4551 21.8462 26.6579 21.8462C26.8478 21.8462 27.0377 21.8357 27.217 21.8146C27.3436 21.804 27.4597 21.7935 27.5758 21.7724C27.9028 21.7302 28.1982 21.6352 28.4936 21.5403C29.1794 21.3081 29.8863 21.8146 29.8863 22.532Z" fill="white"/>
</svg>
