<svg width="24" height="24" viewBox="0 0 24 24" fill="none" xmlns="http://www.w3.org/2000/svg">
<circle cx="12" cy="12" r="11.25" fill="white" stroke="#E9E9E9" stroke-width="0.5"/>
<path d="M12.6297 7.80011L8.52468 12.1451C8.36968 12.3101 8.21968 12.6351 8.18968 12.8601L8.00468 14.4801C7.93968 15.0651 8.35968 15.4651 8.93968 15.3651L10.5497 15.0901C10.7747 15.0501 11.0897 14.8851 11.2447 14.7151L15.3497 10.3701C16.0597 9.62011 16.3797 8.76511 15.2747 7.72011C14.1747 6.68511 13.3397 7.05011 12.6297 7.80011Z" stroke="#CBCBCB" stroke-miterlimit="10" stroke-linecap="round" stroke-linejoin="round"/>
<path d="M11.9453 8.5249C12.1603 9.9049 13.2803 10.9599 14.6703 11.0999L11.9453 8.5249Z" fill="#2DB894"/>
<path d="M11.9453 8.5249C12.1603 9.9049 13.2803 10.9599 14.6703 11.0999" stroke="#CBCBCB" stroke-miterlimit="10" stroke-linecap="round" stroke-linejoin="round"/>
<path d="M7.5 17H16.5" stroke="#CBCBCB" stroke-miterlimit="10" stroke-linecap="round" stroke-linejoin="round"/>
</svg>
